<?xml version="1.0" encoding="UTF-8"?>
<svg width="60px" height="60px" viewBox="0 0 60 60" version="1.1" xmlns="http://www.w3.org/2000/svg" xmlns:xlink="http://www.w3.org/1999/xlink">
    <title>icon_alert</title>
    <defs>
        <linearGradient x1="-62.606754%" y1="176.459033%" x2="143.151516%" y2="-30.9174079%" id="linearGradient-1">
            <stop stop-color="#FF7100" offset="0%"></stop>
            <stop stop-color="#F6DA35" offset="100%"></stop>
        </linearGradient>
    </defs>
    <g id="icon_alert" stroke="none" stroke-width="1" fill="none" fill-rule="evenodd">
        <path d="M30.22,10.455 L30.1649248,10.4897113 C29.8168303,10.7186014 29.486272,11.0849084 29.0905085,11.6050066 L28.5171024,12.3671801 L28.4054688,12.4960778 C28.340759,12.5676306 28.2890292,12.6161541 28.2539044,12.6418131 C27.7707868,12.9947347 27.3094263,13.2919219 26.6802485,13.6633712 L25.2499778,14.4946366 L24.6231105,14.873956 L24.2186576,15.1343658 L23.8065783,15.4145787 C21.2194339,17.2118761 19.2754225,19.8284351 18.2937161,22.9088863 L15.6302421,31.2664781 C15.615231,31.3135807 15.5864699,31.347482 15.5496841,31.3666362 C15.5191219,31.3825497 15.4893401,31.3852364 15.4597741,31.375442 C14.3911359,31.021432 13.2475602,31.1221479 12.2661034,31.6319705 C11.2902184,32.1388988 10.5451834,33.0138402 10.2022187,34.0900136 C9.85990082,35.1641569 9.95787973,36.3113125 10.4530992,37.2983725 C10.9498431,38.2884711 11.8112345,39.0478489 12.876822,39.4008483 L40.1685769,48.4418433 C41.2375188,48.7959539 42.3809997,48.6962673 43.3626416,48.1883104 C44.3412292,47.681934 45.0881361,46.8063409 45.4314612,45.729037 C45.7727836,44.6580173 45.6752599,43.5119652 45.1822468,42.5255164 C44.6863888,41.5333753 43.8251816,40.7721081 42.7621867,40.4199676 C42.7259439,40.4079614 42.6967663,40.3821495 42.6774557,40.3434194 C42.6551051,40.2985922 42.6507849,40.2455846 42.6679061,40.1918607 L45.3398204,30.8798437 C46.3119138,27.8309541 46.2478658,24.5550418 45.1933963,21.5574611 L45.0634116,21.2028281 L44.9039404,20.7998097 C43.9226142,18.4047516 42.4998228,16.4260597 40.6095294,14.9407205 L40.476,14.839 L40.5129559,14.5643072 C40.6735456,13.2549927 40.6159108,12.3071128 40.2893131,11.6527326 C39.6917128,10.4553642 38.7781736,9.4773504 37.6584659,9.10642256 C37.5185341,9.06006708 37.3756431,9.01466088 37.2303937,8.9704495 L36.7881722,8.84164539 L36.3354079,8.72148353 L35.8757073,8.61143721 C35.5677296,8.54177225 35.257532,8.47983317 34.9499233,8.42758436 L34.4910529,8.3567244 L34.0396724,8.30187314 C32.3283441,8.12417586 30.8615975,8.33181075 30.5536114,9.29822613 L30.22,10.455 Z" id="Path" fill="#363636" fill-rule="nonzero" transform="translate(28.014313, 28.448116) scale(-1, 1) translate(-28.014313, -28.448116) "></path>
        <path d="M39.3958512,12.0992981 C39.6672428,12.6430657 39.6672428,13.7057483 39.3958512,15.2873458 C41.6619436,16.8492986 43.1725342,19.0514086 44.1258645,21.5471921 L44.2513498,21.8893016 C45.2120284,24.6202592 45.3135887,27.6742516 44.3798832,30.6040828 L41.7164092,39.8882181 C41.6173784,40.1989624 41.6496485,40.5205372 41.7838152,40.7896267 C41.9163845,41.0555126 42.1484604,41.2696728 42.4490096,41.3692363 C43.2769287,41.6435027 43.920811,42.2358187 44.2890321,42.9725766 C44.6559986,43.7068242 44.7483647,44.5831933 44.4799643,45.4253945 C44.2106486,46.2704676 43.6281233,46.9256533 42.9043571,47.3001707 C42.1809844,47.6744845 41.3169056,47.7683829 40.4843322,47.4925747 L13.1925773,38.4515796 C12.3602196,38.1758428 11.7165338,37.5840844 11.3482027,36.8499354 C10.9797493,36.1155425 10.8869778,35.2387302 11.1562938,34.3936561 C11.4255299,33.5488326 12.0069442,32.8941305 12.7283644,32.5193852 C13.4516572,32.1436672 14.3152486,32.0493082 15.146597,32.3247107 C15.4445226,32.4234051 15.7537858,32.3884734 16.0128104,32.2536009 C16.2751442,32.1170052 16.4861672,31.8781009 16.5843172,31.5701207 L19.2477912,23.2125288 C20.1821123,20.2807659 22.0259683,17.8700954 24.3784065,16.2358491 C24.9094719,15.8669163 25.4120611,15.5590416 25.9030606,15.270939 L26.8746102,14.7088641 C27.5186791,14.3354124 28.1621577,13.94818 28.845073,13.4493043 C29.0699196,13.2850519 29.2908772,13.0110282 29.5165479,12.7095608 L29.8596643,12.2470679 C30.2859777,11.6817979 30.7425895,11.162643 31.2825076,11.1969096 L31.0534628,11.1851936 L31.5076865,9.60186871 C31.6427459,9.17807214 32.8017003,9.1998849 34.0653532,9.36974922 L34.5423355,9.43980709 C34.622052,9.45244634 34.7017288,9.46551861 34.7811412,9.47895128 L35.2526495,9.56329077 L35.7070437,9.65279257 L36.133552,9.7439697 L36.5214024,9.83333513 L36.8598233,9.91740187 L37.1380427,9.99268291 L37.3452889,10.0556912 C38.2714016,10.3624865 38.9871655,11.280444 39.3958512,12.0992981 Z" id="Path" fill="#DADADA" fill-rule="nonzero" transform="translate(28.014957, 28.453926) scale(-1, 1) translate(-28.014957, -28.453926) "></path>
        <path d="M27.1484981,38.1922185 C30.1491736,38.2095865 32.5973962,41.0033355 32.6167563,44.4323907 C32.6361164,47.8614458 30.2192827,50.6272936 27.2186072,50.6102436 C24.2179318,50.5928756 21.7697092,47.7991266 21.7503491,44.3700714 C21.730989,40.9410163 24.1478226,38.1751685 27.1484981,38.1922185 Z" id="Path" fill="#363636" fill-rule="nonzero" transform="translate(27.183553, 44.401231) scale(-1, 1) rotate(18.000000) translate(-27.183553, -44.401231) "></path>
        <path d="M27.1427898,39.1922195 C24.7312026,39.178515 22.7339588,41.4642005 22.7503331,44.3644256 C22.766753,47.2727018 24.8028923,49.5962294 27.2243156,49.6102426 C29.6359028,49.6239471 31.6331466,47.3382616 31.6167722,44.4380365 C31.6007962,41.6083623 29.6727993,39.3322559 27.3381958,39.1984393 L27.1427898,39.1922195 Z" id="Path" fill="#EEEEEE" fill-rule="nonzero" transform="translate(27.183553, 44.401231) scale(-1, 1) rotate(18.000000) translate(-27.183553, -44.401231) "></path>
        <path d="M37.5354203,8.89030612 L37.3297159,9.01919748 C36.4556862,9.59852122 35.809754,10.4454576 35.4883119,11.4540958 L35.323,11.97 L35.157224,11.9718273 C32.4013374,12.0316972 29.73047,12.9089964 27.457501,14.4880352 C24.8703566,16.2853326 22.9263452,18.9018916 21.9446388,21.9823427 L19.2811648,30.3399346 C19.2661537,30.3870372 19.2373926,30.4209385 19.2006068,30.4400927 C19.1700447,30.4560062 19.1402628,30.4586929 19.1106968,30.4488985 C18.0420586,30.0948885 16.8984829,30.1956044 15.9170261,30.705427 C14.9411411,31.2123553 14.1961062,32.0872967 13.8531414,33.1634701 C13.5108235,34.2376134 13.6088024,35.384769 14.1040219,36.371829 C14.6007659,37.3619276 15.4621572,38.1213054 16.5277447,38.4743048 L43.8194997,47.5152998 C44.8884416,47.8694104 46.0319224,47.7697238 47.0135643,47.2617669 C47.992152,46.7553905 48.7390588,45.8797974 49.0823839,44.8024935 C49.4237063,43.7314738 49.3261826,42.5854217 48.8331695,41.5989729 C48.3373115,40.6068318 47.4761043,39.8455646 46.4131094,39.4934241 C46.3768666,39.4814179 46.347689,39.455606 46.3283784,39.4168759 C46.3060278,39.3720487 46.3017076,39.3190411 46.3188288,39.2653172 L48.9823028,30.9077254 C49.9628365,27.8309541 49.8987885,24.5550418 48.844319,21.5574611 L48.7143343,21.2028281 L48.5669394,20.8319652 C47.6030444,18.4987447 46.0640226,16.4650076 44.0838912,14.9299757 L43.923,14.809 L44.0946048,14.2747869 C44.4669941,13.1062857 44.3624368,11.8617876 43.8277824,10.7905394 C43.28986,9.71274318 42.3548495,8.88684881 41.1969353,8.50326422 C40.0367444,8.11892545 38.7949871,8.22868475 37.7290974,8.78313246 L37.5354203,8.89030612 Z" id="Path" fill="#363636" fill-rule="nonzero" transform="translate(31.664624, 28.000688) scale(-1, 1) translate(-31.664624, -28.000688) "></path>
        <path d="M40.8825343,9.45253291 C41.808647,9.75932816 42.5244109,10.4182508 42.9330966,11.2371049 C43.340184,12.0527563 43.4425942,13.0275616 43.1422034,13.9701439 L42.7488233,15.2000474 L42.8766262,15.285399 C45.1427185,16.8473518 46.8222329,19.0514086 47.7755633,21.5471921 L47.9010486,21.8893016 C48.8617272,24.6202592 48.9632874,27.6742516 48.029582,30.6040828 L45.3661079,38.9616746 C45.2670771,39.2724189 45.2993473,39.5939937 45.4335139,39.8630832 C45.5660833,40.1289691 45.7981592,40.3431293 46.0987084,40.4426928 C46.9266275,40.7169592 47.5705097,41.3092752 47.9387308,42.0460331 C48.3056973,42.7802807 48.3980634,43.6566498 48.129663,44.4988509 C47.8603474,45.3439241 47.2778221,45.9991098 46.5540559,46.3736272 C45.8306832,46.747941 44.9666043,46.8418394 44.134031,46.5660312 L16.842276,37.5250361 C16.0099184,37.2492993 15.3662325,36.6575409 14.9979015,35.9233919 C14.629448,35.188999 14.5366766,34.3121867 14.8059925,33.4671126 C15.0752287,32.6222891 15.6566429,31.967587 16.3780632,31.5928417 C17.1013559,31.2171237 17.9649474,31.1227647 18.7962958,31.3981671 C19.0942213,31.4968616 19.4034846,31.4619299 19.6625092,31.3270574 C19.924843,31.1904617 20.135866,30.9515574 20.2340159,30.6435772 L22.89749,22.2859853 C23.8318111,19.3542224 25.675667,16.9435519 28.0281053,15.3093056 C30.2953587,13.7342375 33.0350649,12.8806227 35.8894291,12.9756808 L36.0502928,12.9828288 L36.4411631,11.7577384 C36.719723,10.883658 37.2976179,10.1928382 38.0211518,9.76445035 L38.1906366,9.6702862 C38.996108,9.25130123 39.9576054,9.14612984 40.8825343,9.45253291 Z" id="Path" fill="#EEEEEE" fill-rule="nonzero" transform="translate(31.664656, 28.000686) scale(-1, 1) translate(-31.664656, -28.000686) "></path>
        <path d="M41.6013589,7 C36.9679869,7 33.2026261,10.789345 33.2026261,15.4458319 C33.2026261,20.1023949 36.9679708,23.8917561 41.6013589,23.8917561 C46.2347334,23.8917561 50,20.1024086 50,15.4458319 C50,10.7893612 46.2346553,7 41.6013589,7 Z" id="Path" fill="#363636" fill-rule="nonzero" transform="translate(41.601313, 15.445878) scale(-1, 1) translate(-41.601313, -15.445878) "></path>
        <path d="M41.6013589,8 C45.6809423,8 49,11.3402277 49,15.4458319 C49,19.5515284 45.681034,22.8917561 41.6013589,22.8917561 C37.5216838,22.8917561 34.2026261,19.5515284 34.2026261,15.4458319 C34.2026261,11.3402277 37.5216838,8 41.6013589,8 Z" id="Path" fill="url(#linearGradient-1)" transform="translate(41.601313, 15.445878) scale(-1, 1) translate(-41.601313, -15.445878) "></path>
        <path d="M42.5944534,11.2152645 L41.0638645,11.2152645 C40.6840144,11.2152645 40.3760624,11.5251806 40.3760624,11.9074536 C40.3760624,12.2897265 40.6840144,12.5996426 41.0638645,12.5996426 L41.9066513,12.5996426 L41.9066513,19.1144341 C41.9066513,19.496707 42.2146033,19.8066232 42.5944534,19.8066232 C42.9743036,19.8066232 43.2822555,19.496707 43.2822555,19.1144341 L43.2822555,11.9074536 C43.2822555,11.5251806 42.9743036,11.2152645 42.5944534,11.2152645 Z" id="Path" fill="#363636" fill-rule="nonzero"></path>
    </g>
</svg>