<?xml version="1.0" encoding="UTF-8"?>
<svg width="60px" height="60px" viewBox="0 0 60 60" version="1.1" xmlns="http://www.w3.org/2000/svg" xmlns:xlink="http://www.w3.org/1999/xlink">
    <title>icon_chat</title>
    <defs>
        <linearGradient x1="-0.741450962%" y1="176.459033%" x2="91.9747745%" y2="-30.9174079%" id="linearGradient-1">
            <stop stop-color="#FF7100" offset="0%"></stop>
            <stop stop-color="#F6DA35" offset="100%"></stop>
        </linearGradient>
    </defs>
    <g id="icon_chat" stroke="none" stroke-width="1" fill="none" fill-rule="evenodd">
        <path d="M37.8028121,13.5217391 L38.7957593,13.5257075 L39.7588697,13.5378216 L40.2293621,13.5470311 L41.1484733,13.5719511 L41.5971929,13.5877399 L42.4732121,13.6261707 L43.3210073,13.6740003 C43.8768857,13.7090893 44.4142169,13.7506531 44.9335385,13.7991093 L45.6990809,13.8770152 C54.4743929,14.8474453 57.8165849,17.992662 58.6068569,25.5514165 L58.6684121,26.2101706 L58.6946285,26.5477521 L58.7381909,27.2395196 L58.7556377,27.593784 L58.7821145,28.3192699 L58.7977049,29.0676263 L58.8028121,29.8391665 L58.7980675,30.5833995 L58.7784111,31.4834065 L58.7428456,32.3502761 L58.7024644,33.0202814 C58.6795552,33.3501166 58.652523,33.6722357 58.6211645,33.9867966 L58.5526189,34.6058876 L58.4721753,35.2051041 C57.5205316,41.6882065 54.3438205,44.6150547 46.7780479,45.6671162 L46.0780991,45.7576402 L45.7189435,45.7991165 L44.9820441,45.8746728 L44.2200592,45.9406015 L43.4326276,45.9971835 L42.6193881,46.0446993 L41.7799792,46.0834298 L40.9140398,46.1136556 L39.5645954,46.1436623 L29.296249,53.8600546 C29.175364,53.9509163 29.0286036,54 28.8778121,54 C28.5209512,54 28.2264608,53.730817 28.1832661,53.3828928 L28.1778121,53.2943815 L28.177744,45.5703975 L27.5759544,45.4685831 C20.5731424,44.2097851 17.7525492,41.0188975 17.0133851,34.2635637 L16.9558283,33.6841689 L16.9078995,33.0875849 L16.8874574,32.7827786 L16.8534421,32.1600005 L16.8234386,31.3565605 L16.8068278,30.5249797 L16.8028121,29.8391665 L16.8079193,29.0676263 L16.8235097,28.3192699 L16.8499865,27.593784 L16.8674333,27.2395196 L16.9109957,26.5477521 L16.9372121,26.2101706 L16.9987673,25.5514165 C17.7890393,17.992662 21.1312313,14.8474453 29.9065433,13.8770152 L30.6720857,13.7991093 C31.1914073,13.7506531 31.7287385,13.7090893 32.2846169,13.6740003 L33.1324121,13.6261707 L34.0084313,13.5877399 L34.4571509,13.5719511 L35.3762621,13.5470311 L36.5663059,13.5279601 L37.8028121,13.5217391 Z" id="Path" fill="#363636" fill-rule="nonzero" transform="translate(37.802812, 33.760870) scale(-1, 1) translate(-37.802812, -33.760870) "></path>
        <path d="M38.791758,14.5256995 L37.8019952,14.521 L36.5769642,14.5279007 L35.4033605,14.5466638 L34.2675957,14.5789223 L33.1887343,14.624583 L32.3476103,14.672014 C31.9813611,14.6951329 31.6250131,14.7210011 31.2806408,14.7494302 L30.7733237,14.793971 L30.0164549,14.8709561 C21.8775472,15.7710084 18.8320031,18.4481331 18.0303692,25.3192867 L17.9944253,25.6444531 L17.933798,26.2926758 L17.9090141,26.6106002 L17.8659896,27.2931467 L17.8493165,27.630255 L17.823288,28.3400983 L17.8078231,29.0811553 L17.8027902,29.8333112 L17.8066551,30.5066543 L17.8187464,31.1675523 L17.8275791,31.4803416 L17.8519491,32.1054631 L17.8854853,32.7200812 L17.9046831,33.0075041 L17.9509256,33.5853161 L18.0074472,34.1547936 C18.6959124,40.4467819 21.1852442,43.2218824 27.4059335,44.4199124 L27.7427652,44.4825949 L29.1777318,44.7253714 L29.1749952,52.699 L39.2239683,45.1487462 L39.9965682,45.1359611 L40.879151,45.1142642 L41.7338833,45.0844925 L42.5610549,45.0464018 L43.3609514,44.9997552 L44.1412853,44.9437086 L44.5173969,44.9126099 L44.8800413,44.8798882 L45.608553,44.8052276 L45.9498331,44.7658998 L46.640313,44.6766464 C53.6178953,43.706376 56.4934546,41.2089707 57.4333682,35.3818259 L57.4810618,35.0720498 L57.5586878,34.4958403 L57.626092,33.8875985 L57.6683504,33.4274542 L57.7042709,32.9601206 L57.7437666,32.3072572 L57.7732006,31.6244311 L57.7837883,31.286048 L57.798083,30.5770243 L57.8028293,29.8457858 L57.7979171,29.0884546 L57.7827751,28.3557409 L57.7566388,27.6386233 L57.7401631,27.3023678 L57.6849999,26.456907 L57.6122732,25.6554003 C56.9133711,18.9705762 54.2173958,16.1397551 47.0633819,15.0618947 L46.3452448,14.9614548 C46.2231302,14.9456323 46.0997959,14.9302624 45.9752309,14.9153359 L45.5978334,14.871877 L44.8406305,14.7947844 C44.5031932,14.7632992 44.156449,14.7346423 43.8019785,14.708879 L43.2646756,14.6724127 L42.4293797,14.6252098 L41.3394132,14.5789719 L39.9762604,14.5419811 L38.791758,14.5256995 Z" id="Path" fill="#DADADA" fill-rule="nonzero" transform="translate(37.802810, 33.610000) scale(-1, 1) translate(-37.802810, -33.610000) "></path>
        <path d="M38.573607,11.923913 L39.5301085,11.9277144 L40.685363,11.9434737 L42.0134569,11.9793032 L43.0725822,12.0239475 L43.8892595,12.0697632 C44.4247346,12.1033748 44.9423434,12.1431885 45.4426035,12.1896045 L46.180047,12.2642301 C54.6332655,13.1938 57.8527839,16.2065865 58.6140494,23.4470777 L58.6733452,24.0780948 L58.6985994,24.4014623 L58.7405628,25.0641028 C58.7466235,25.1763227 58.7522229,25.2894366 58.7573693,25.4034508 L58.7828742,26.0983899 L58.7978924,26.8152365 L58.8028121,27.5542908 L58.7982416,28.2671877 L58.7793067,29.1292997 L58.7450466,29.9596695 L58.7061476,30.6014641 C58.6840793,30.9174114 58.6580393,31.2259676 58.6278318,31.5272838 L58.5618021,32.1203079 L58.4843111,32.6942943 C57.5675971,38.9044239 54.5074856,41.7080364 47.2194111,42.7158006 L46.5451536,42.8025131 L46.1991806,42.8422429 L45.4893287,42.9146179 C45.2487032,42.9371909 45.0040504,42.9582269 44.7553121,42.9777707 L43.9967828,43.0319702 L43.2133928,43.0774854 L42.404794,43.1145851 L41.5706385,43.1435383 L40.2707248,43.1722816 L30.3792731,50.5637732 C30.2628251,50.650809 30.1214515,50.6978261 29.9761948,50.6978261 C29.6324323,50.6978261 29.3487509,50.4399771 29.3071417,50.1067024 L29.3018879,50.0219179 L29.3018223,42.6231543 L28.7221211,42.5256267 C21.9763439,41.3198308 19.2592792,38.2632963 18.5472457,31.7923977 L18.4918016,31.2373984 L18.4259402,30.3739614 L18.3931734,29.7774056 L18.3642712,29.0077945 L18.3482701,28.2112277 L18.3444018,27.5542908 C18.3444018,27.3042048 18.3460201,27.05787 18.3493215,26.8152365 L18.3643397,26.0983899 L18.3898447,25.4034508 L18.4066511,25.0641028 L18.4486146,24.4014623 C18.4565525,24.2927937 18.4649678,24.1850066 18.4738687,24.0780948 L18.5331645,23.4470777 C19.29443,16.2065865 22.5139485,13.1938 30.9671669,12.2642301 L31.7046104,12.1896045 C32.2048706,12.1431885 32.7224793,12.1033748 33.2579544,12.0697632 L34.0746317,12.0239475 L35.1337571,11.9793032 L36.2361223,11.9481401 L37.3824861,11.9298721 L38.573607,11.923913 Z" id="Path" fill="#363636" fill-rule="nonzero" transform="translate(38.573607, 31.310870) scale(-1, 1) translate(-38.573607, -31.310870) "></path>
        <path d="M39.5261295,12.9277065 L38.5729952,12.923 L37.3930931,12.9298133 L36.2630688,12.9477769 L35.1692658,12.9786684 L34.130639,13.0223775 L33.3205959,13.067799 C32.9679928,13.0899318 32.62493,13.1146959 32.2934838,13.1419033 L31.8052865,13.1845232 L31.0764695,13.2582381 L30.7076514,13.3004886 L29.9919882,13.392876 C23.2142366,14.3378508 20.4812357,16.8086291 19.6438034,22.6129569 L19.5638462,23.2253701 L19.5287737,23.5406342 L19.4579303,24.3156705 L19.3967256,25.2813852 L19.3641155,26.1193356 L19.3492242,26.8288418 L19.3455997,27.1871058 L19.3443796,27.5484026 L19.3480954,28.192799 L19.3638296,28.9784552 L19.3916635,29.7225616 L19.4239458,30.3109119 L19.4423794,30.5854043 L19.4868439,31.1379937 L19.5412414,31.6830216 C20.2021246,37.6890712 22.5859003,40.3334859 28.5586647,41.4785054 L28.8880224,41.5394852 L30.30181,41.7773374 L30.2989952,49.374 L39.9316266,42.1773144 L40.6860759,42.164914 L41.535945,42.1441401 L42.3589559,42.115636 L43.1553855,42.079169 L43.9255063,42.0345133 L44.676977,41.9808432 L45.0390168,41.9510763 L45.3878918,41.9197754 L46.0850904,41.848772 L46.4175948,41.8106814 L47.0824338,41.7252257 C53.7872701,40.7981093 56.5437963,38.4192509 57.4466888,32.8613015 L57.4932968,32.5605031 L57.567939,32.0096477 L57.6328146,31.427532 L57.673452,30.9875339 L57.7079745,30.5409653 L57.745978,29.9164085 L57.7743167,29.2627164 L57.784496,28.9392949 L57.7982573,28.2607766 L57.8028295,27.5609475 L57.798107,26.8361823 L57.7835422,26.1350662 L57.7583816,25.4485423 L57.7425572,25.1273038 L57.7012519,24.4743154 L57.6777264,24.1716513 L57.6195264,23.5516414 C56.9155752,16.8562736 54.1073651,14.2149651 46.4477813,13.3013574 L46.0793613,13.2591489 L45.3502118,13.1853276 C45.025372,13.1551878 44.6915636,13.1277547 44.3503711,13.1030948 L43.8332425,13.0681933 L43.028995,13.0229973 L41.9793248,12.9787175 L40.8891947,12.9479005 L40.445357,12.9392401 L39.5261295,12.9277065 Z" id="Path" fill="#EEEEEE" fill-rule="nonzero" transform="translate(38.573605, 31.148500) scale(-1, 1) translate(-38.573605, -31.148500) "></path>
        <path d="M22.0344356,5.5326087 L23.029011,5.53657709 L23.9937007,5.54869115 L24.4649646,5.55790071 L25.385583,5.58282068 L25.8350384,5.59860943 L26.7124941,5.63704023 L27.5616795,5.68486987 C28.1184694,5.71995887 28.6566817,5.76152262 29.1768549,5.80997885 L29.9436526,5.88788478 C38.7333543,6.85831482 44.0121556,10.2106291 44.8037235,17.7693836 L44.8653796,18.4281377 L44.891639,18.7657192 L44.9352728,19.4574867 L44.9527482,19.8117511 L44.9792685,20.537237 L44.9948844,21.2855934 L45,22.0571336 L44.9952475,22.8013665 L44.975559,23.7013736 L44.9399351,24.5682432 L44.8994877,25.2382485 C44.876541,25.5680837 44.8494644,25.8902027 44.8180545,26.2047636 L44.7493965,26.8238546 L44.668821,27.4230712 C43.7156168,33.9061736 38.6025677,36.6259243 31.0243889,37.6779858 L30.3232923,37.7685098 L29.9635478,37.809986 L29.22544,37.8855423 L28.4622056,37.9514711 L27.6734828,38.008053 L26.8589097,38.0555688 L26.0181244,38.0942993 L25.150765,38.1245252 L23.7991078,38.1545319 L13.5139235,45.8709242 C13.3928403,45.9617858 13.2458392,46.0108696 13.0948005,46.0108696 C12.7373544,46.0108696 12.442381,45.7416866 12.3991155,45.3937624 L12.3936526,45.3052511 L12.3935844,37.5812671 L11.790808,37.4794526 C4.77651284,36.2206547 1.95129442,33.029767 1.21091823,26.2744333 L1.15326712,25.6950385 L1.09473154,24.9465971 L1.05071299,24.1708701 L1.02066028,23.36743 L1.00402225,22.5358493 L1,21.850036 C1,21.5889572 1.00168275,21.3317946 1.00511557,21.0784959 L1.02073154,20.3301395 L1.04725176,19.6046536 C1.05260292,19.4856278 1.05842525,19.3675418 1.06472717,19.2503892 L1.108361,18.5586217 L1.13462039,18.2210402 L1.19627653,17.5622861 C1.98784441,10.0035316 5.3355169,6.85831482 14.1252186,5.88788478 L14.8920163,5.80997885 C15.4121895,5.76152262 15.9504018,5.71995887 16.5071917,5.68486987 L17.3563771,5.63704023 L18.2338328,5.59860943 L18.6832882,5.58282068 L19.6039066,5.55790071 L20.7959017,5.53882971 L22.0344356,5.5326087 Z" id="Path" fill="#363636" fill-rule="nonzero"></path>
        <path d="M23.025021,6.53656913 L22.034,6.532 L20.8065465,6.53877049 L19.6309654,6.55753455 L18.4933093,6.58979394 L17.4126121,6.63545779 L16.5700871,6.68289 C16.2032162,6.70601026 15.8462624,6.73188004 15.5012957,6.76031173 L14.993095,6.80485728 L14.2349571,6.88184527 L13.4854565,6.97151553 C6.13818862,7.92176213 3.19695087,10.5004465 2.30987433,16.6983892 L2.22792677,17.3303214 L2.19192508,17.6554739 L2.13119989,18.3036797 L2.10637763,18.6215724 L2.05446805,19.4749008 L2.04658429,19.6411843 L2.02051389,20.351002 L2.00502375,21.0920471 L1.9999828,21.8441712 L2.00385378,22.5174938 L2.01596464,23.1783809 L2.02481106,23.4911471 L2.04921984,24.1162435 L2.08281025,24.7308484 L2.10203754,25.0182432 L2.14835323,25.5960251 L2.20496586,26.1654869 C2.89453122,32.4572129 5.38815392,35.2325337 11.6199261,36.4307283 L11.957358,36.4934196 L13.3935769,36.7360102 L13.391,44.712 L23.4589315,37.1596009 L24.2318744,37.1468296 L25.115938,37.1251318 L25.9721085,37.0953586 L26.8006765,37.0572658 L27.601928,37.0106163 L28.3835646,36.9545681 L28.7603207,36.923467 L29.1236072,36.8907408 L29.8533406,36.8160774 L30.1952376,36.7767427 L30.8868799,36.6874853 C38.6735,35.6064864 42.7268243,32.8783042 43.6322444,27.5763057 L43.677741,27.2898025 L43.7554899,26.7136291 L43.8230028,26.1054045 L43.8653282,25.6452862 L43.9013049,25.1779894 L43.9408639,24.5251538 L43.9760183,23.6712738 L43.9952679,22.7949809 L44.000022,22.0637637 L43.9951021,21.3064558 L43.9799359,20.5737677 L43.9537573,19.8566637 L43.9372562,19.5204375 L43.8820044,18.6750025 L43.8091621,17.873536 C43.1212106,11.304224 38.8367008,7.9672423 30.2608848,6.93110703 L29.8425739,6.88276321 L29.0841024,6.80566805 C28.7460897,6.7741808 28.3987553,6.74552204 28.0436757,6.71975687 L27.5054445,6.68328743 L26.668738,6.63608248 L25.7971215,6.59789032 L25.3585241,6.58245453 L24.2115149,6.55285124 L23.025021,6.53656913 Z" id="Path" fill="#DADADA" fill-rule="nonzero"></path>
        <path d="M25.0874702,5 L26.0439717,5.00380131 L27.1992262,5.01956064 L28.5273201,5.05539015 L29.5864454,5.10003442 L30.4031227,5.14585018 C30.9385979,5.17946175 31.4562066,5.21927544 31.9564667,5.26569141 L32.6939103,5.34031709 C41.1471287,6.26988692 44.3666471,9.28267349 45.1279126,16.5231647 L45.1872084,17.1541818 L45.2124626,17.4775493 L45.254426,18.1401898 C45.2604867,18.2524096 45.2660862,18.3655235 45.2712325,18.4795378 L45.2967374,19.1744769 L45.3117556,19.8913235 L45.3166754,20.6303778 L45.3121048,21.3432746 L45.2931699,22.2053866 L45.2589099,23.0357565 L45.2200108,23.677551 C45.1979425,23.9934984 45.1719025,24.3020546 45.141695,24.6033708 L45.0756653,25.1963948 L44.9981743,25.7703812 C44.0814603,31.9805109 41.0213488,34.7841234 33.7332743,35.7918875 L33.0590168,35.8786 L32.7130438,35.9183299 L32.0031919,35.9907049 C31.7625665,36.0132779 31.5179136,36.0343139 31.2691753,36.0538577 L30.510646,36.1080572 L29.727256,36.1535724 L28.9186573,36.1906721 L28.0845017,36.2196253 L26.784588,36.2483685 L16.8931363,43.6398601 C16.7766884,43.726896 16.6353147,43.773913 16.490058,43.773913 C16.1462955,43.773913 15.8626141,43.5160641 15.8210049,43.1827893 L15.8157511,43.0980048 L15.8156855,35.6992412 L15.2359843,35.6017137 C8.49020715,34.3959178 5.77314242,31.3393832 5.06110896,24.8684846 L5.00566482,24.3134853 L4.95949516,23.7420207 L4.93980344,23.4500484 L4.90703662,22.8534925 L4.88286577,22.2399471 L4.87391903,21.9267377 L4.86213328,21.2873147 L4.858265,20.6303778 C4.858265,20.3802917 4.85988334,20.133957 4.86318475,19.8913235 L4.87820291,19.1744769 L4.90370789,18.4795378 L4.92051431,18.1401898 L4.96247778,17.4775493 C4.97041572,17.3688806 4.97883107,17.2610935 4.98773192,17.1541818 L5.04702776,16.5231647 C5.80829321,9.28267349 9.02781167,6.26988692 17.4810301,5.34031709 L18.2184736,5.26569141 C18.7187338,5.21927544 19.2363425,5.17946175 19.7718177,5.14585018 L20.5884949,5.10003442 L21.6476203,5.05539015 L22.7499855,5.02422709 L23.8963493,5.00595908 L25.0874702,5 Z" id="Path" fill="#363636" fill-rule="nonzero"></path>
        <path d="M26.0399976,6.00379341 L25.087,5.999 L23.9069612,6.00590023 L22.7769368,6.02386383 L21.6831339,6.05475533 L20.6445071,6.09846451 L19.834464,6.14388597 C19.4818609,6.16601873 19.138798,6.19078287 18.8073518,6.21799023 L18.3191545,6.26061018 L17.5903376,6.33432508 L17.2215195,6.3765756 L16.5058563,6.46896292 C9.72810459,7.41393776 6.99510378,9.88471606 6.15767141,15.6890439 L6.07771419,16.3014571 L6.04264173,16.6167212 L5.97179835,17.3917574 L5.91059364,18.3574721 L5.87798352,19.1954226 L5.86309219,19.9049288 L5.85946773,20.2631927 L5.85824767,20.6244895 L5.86196345,21.2688859 L5.87769766,22.0545422 L5.90553156,22.7986485 L5.93753684,23.3827575 L5.95624739,23.6614913 L6.00071191,24.2140807 L6.0551094,24.7591085 C6.71599261,30.7651581 9.09976835,33.4095728 15.0725328,34.5545923 L15.4018905,34.6155721 L16.815678,34.8534244 L16.813,42.45 L26.4454947,35.2534014 L27.1999439,35.2410009 L28.049813,35.2202271 L28.872824,35.191723 L29.6692536,35.1552559 L30.4393743,35.1106003 L31.1908451,35.0569302 L31.5528848,35.0271633 L31.9017599,34.9958624 L32.5989584,34.9248589 L32.9314628,34.8867684 L33.5963018,34.8013127 C40.3011381,33.8741962 43.0576644,31.4953379 43.9605569,25.9373884 L44.0071648,25.6365901 L44.081807,25.0857347 L44.1466826,24.503619 L44.18732,24.0636209 L44.2218426,23.6170523 L44.2598461,22.9924954 L44.2881847,22.3388034 L44.298364,22.0153819 L44.3121254,21.3368636 L44.3166975,20.6370344 L44.311975,19.9122692 L44.2974103,19.2111532 L44.2722496,18.5246293 L44.2564252,18.2033908 L44.2151199,17.5504024 L44.1915945,17.2477383 L44.1333944,16.6277283 L44.0982714,16.3119563 L44.0182186,15.6985746 C43.1509938,9.68472504 40.2564911,7.24754697 32.9616494,6.37744439 L32.5932294,6.33523586 L31.8640799,6.2614146 C31.53924,6.23127477 31.2054316,6.20384161 30.8642392,6.17918175 L30.3471106,6.14428027 L29.542863,6.09908425 L28.4931928,6.05480445 L27.4030627,6.02398742 L26.9592251,6.01532709 L26.0399976,6.00379341 Z" id="Path" fill="#FFFFFF" fill-rule="nonzero"></path>
        <path d="M15.1372491,18.7045166 C15.5619978,18.032122 16.1685888,17.6409962 16.8433681,17.6616721 C17.5111611,17.6821341 18.1364144,18.1062101 18.5969463,18.7981622 C19.0357798,19.4575123 19.3240438,20.3580873 19.3534822,21.3450471 C19.3830262,22.3355447 19.1460851,23.2229638 18.7445057,23.8586804 C18.319757,24.531075 17.713166,24.9222009 17.0383867,24.9015249 C16.3705937,24.8810629 15.7453404,24.4569869 15.2848085,23.7650348 C14.845975,23.1056847 14.557711,22.2051097 14.5282726,21.2181499 C14.4987286,20.2276523 14.7356697,19.3402332 15.1372491,18.7045166 Z" id="Oval" fill="url(#linearGradient-1)" transform="translate(16.940877, 21.281599) rotate(-327.000000) translate(-16.940877, -21.281599) "></path>
        <path d="M23.1922109,18.7045166 C23.6169596,18.032122 24.2235506,17.6409962 24.8983299,17.6616721 C25.5661229,17.6821341 26.1913762,18.1062101 26.6519081,18.7981622 C27.0907416,19.4575123 27.3790056,20.3580873 27.408444,21.3450471 C27.437988,22.3355447 27.2010469,23.2229638 26.7994675,23.8586804 C26.3747189,24.531075 25.7681278,24.9222009 25.0933485,24.9015249 C24.4255555,24.8810629 23.8003022,24.4569869 23.3397704,23.7650348 C22.9009368,23.1056847 22.6126729,22.2051097 22.5832344,21.2181499 C22.5536905,20.2276523 22.7906315,19.3402332 23.1922109,18.7045166 Z" id="Oval-Copy" fill="url(#linearGradient-1)" transform="translate(24.995839, 21.281599) rotate(-327.000000) translate(-24.995839, -21.281599) "></path>
        <path d="M31.2471727,18.7045166 C31.6719214,18.032122 32.2785124,17.6409962 32.9532918,17.6616721 C33.6210847,17.6821341 34.246338,18.1062101 34.7068699,18.7981622 C35.1457035,19.4575123 35.4339674,20.3580873 35.4634058,21.3450471 C35.4929498,22.3355447 35.2560087,23.2229638 34.8544293,23.8586804 C34.4296807,24.531075 33.8230897,24.9222009 33.1483103,24.9015249 C32.4805174,24.8810629 31.8552641,24.4569869 31.3947322,23.7650348 C30.9558986,23.1056847 30.6676347,22.2051097 30.6381962,21.2181499 C30.6086523,20.2276523 30.8455934,19.3402332 31.2471727,18.7045166 Z" id="Oval-Copy-2" fill="url(#linearGradient-1)" transform="translate(33.050801, 21.281599) rotate(-327.000000) translate(-33.050801, -21.281599) "></path>
    </g>
</svg>