<?xml version="1.0" encoding="UTF-8"?>
<svg width="72px" height="36px" viewBox="0 0 72 36" version="1.1" xmlns="http://www.w3.org/2000/svg" xmlns:xlink="http://www.w3.org/1999/xlink">
    <title>logo</title>
    <defs>
        <linearGradient x1="9.04413381%" y1="64.2926317%" x2="90.9559146%" y2="35.7079372%" id="linearGradient-1">
            <stop stop-color="#FF5400" offset="0%"></stop>
            <stop stop-color="#F6DA34" offset="100%"></stop>
        </linearGradient>
    </defs>
    <g id="logo" stroke="none" stroke-width="1" fill="none" fill-rule="evenodd">
        <path d="M4.96022907,10.8994361 C-1.32502203,19.9760352 -1.57369163,30.5037357 4.40579736,34.4120352 L4.40579736,34.4120352 C9.00967401,37.4214449 15.9629075,35.6322291 21.7866608,30.5062731 L21.7866608,30.5062731 C22.5068194,32.1218326 23.5918943,33.4622379 25.0448987,34.4120352 L25.0448987,34.4120352 C29.4878062,37.3159824 36.1179912,35.7518062 41.8101145,31.0324758 L41.8101145,31.0324758 C42.5225022,32.4137974 43.5236828,33.5675419 44.8158767,34.4120352 L44.8158767,34.4120352 C50.795207,38.3203348 60.7367577,34.1352952 67.0221674,25.0575859 L67.0221674,25.0575859 C73.3075771,15.9800352 73.5562467,5.45328634 67.5767577,1.54498678 L67.5767577,1.54498678 C63.1355947,-1.36054626 56.5044581,0.205057269 50.8113833,4.92502203 L50.8113833,4.92502203 C50.0991542,3.54354185 49.0979736,2.38963877 47.8060969,1.54498678 L47.8060969,1.54498678 L47.8037181,1.54498678 C43.200793,-1.46585022 36.2480352,0.324475771 30.4244405,5.4507489 L30.4244405,5.4507489 C29.192511,3.10186784 27.1677885,1.54498678 27.1677885,1.54498678 L27.1677885,1.54498678 C25.6472247,0.550625551 23.8711718,0.0800880657 21.9636476,0.0800880657 L21.9636476,0.0800880657 C16.3688987,0.0805638767 9.64752423,4.13080176 4.96022907,10.8994361" id="Fill-1" fill="url(#linearGradient-1)"></path>
        <path d="M22.9444018,12.7113621 C22.2310626,12.3356617 21.3486661,12.6090714 20.972807,13.3220934 L17.8506396,19.2471859 L14.702622,13.3181286 C14.3247013,12.6062167 13.4411947,12.3356617 12.7292828,12.7135824 C12.0175295,13.0915031 11.7468159,13.9750097 12.1247366,14.6869216 L16.2044722,22.3709392 L15.6895295,23.3483313 C15.1785515,24.325089 14.1756264,24.9556441 13.0721551,24.9938643 C12.2666749,25.0217762 11.6362784,25.6973709 11.6641903,26.5030097 C11.6914678,27.2913621 12.3391507,27.9117674 13.1217938,27.9117674 C13.1389216,27.9117674 13.1560493,27.9114502 13.1733357,27.9109744 C15.3238203,27.836437 17.2789216,26.6065692 18.2737586,24.70523 L23.555133,14.6829568 C23.9308335,13.9699348 23.6574238,13.0872211 22.9444018,12.7113621" id="Fill-4" fill="#FFFFFF"></path>
        <path d="M51.5220308,24.4229075 C50.9067253,24.4229075 50.34582,24.0598845 50.0934894,23.4981218 C49.8410051,22.936359 49.9416608,22.2755341 50.3499691,21.8145256 L56.4352545,14.9446228 L56.4403257,14.9370855 C56.6799015,14.578831 56.8065278,14.1599701 56.8065278,13.7252655 C56.8065278,12.5211366 55.82794,11.541436 54.6248364,11.541436 C54.0421095,11.541436 53.4942663,11.768633 53.0822698,12.1811871 C52.7864498,12.477297 52.3930477,12.6403497 51.9745969,12.6403497 C51.5561462,12.6403497 51.1627441,12.477297 50.8667704,12.1811871 C50.5711041,11.8850772 50.4079037,11.4912896 50.4079037,11.0722749 C50.4079037,10.653414 50.5711041,10.2596263 50.8667704,9.96351646 C51.8705605,8.95874261 53.2053616,8.40528634 54.6248364,8.40528634 C57.5555285,8.40528634 59.9397605,10.791855 59.9397605,13.7252655 C59.9397605,14.8501753 59.5929212,15.9258617 58.9367388,16.8360343 C58.9066189,16.8778742 58.8735793,16.9192527 58.8385419,16.9589391 L55.0047153,21.2867579 L58.856368,21.2867579 C59.7201622,21.2867579 60.4229075,21.9901919 60.4229075,22.8548327 C60.4229075,23.7194735 59.7201622,24.4229075 58.856368,24.4229075 L51.5220308,24.4229075 Z" id="Fill-6" fill="#FFFFFF"></path>
        <path d="M29.6481727,21.6001586 C27.9558555,21.6001586 26.5789744,20.2232775 26.5789744,18.5311189 C26.5789744,16.8388018 27.9558555,15.4619207 29.6481727,15.4619207 C31.3404899,15.4619207 32.7173709,16.8388018 32.7173709,18.5311189 C32.7173709,20.2232775 31.3404899,21.6001586 29.6481727,21.6001586 L29.6481727,21.6001586 Z M35.636067,18.5311189 C35.636067,15.2292687 32.9498643,12.5432247 29.6481727,12.5432247 C26.3464811,12.5432247 23.6602784,15.2292687 23.6602784,18.5311189 C23.6602784,21.8328106 26.3464811,24.5190132 29.6481727,24.5190132 C30.8081022,24.5190132 31.8914326,24.1864493 32.8096705,23.6129868 C33.0159965,24.1686872 33.5493357,24.5653216 34.1767189,24.5653216 C34.9826749,24.5653216 35.636067,23.9119295 35.636067,23.1059736 L35.636067,18.5311189 Z" id="Fill-8" fill="#FFFFFF"></path>
        <path d="M42.7041515,21.6001586 C41.0118344,21.6001586 39.6349533,20.2232775 39.6349533,18.5311189 C39.6349533,16.8388018 41.0118344,15.4619207 42.7041515,15.4619207 C44.3963101,15.4619207 45.7731912,16.8388018 45.7731912,18.5311189 C45.7731912,20.2232775 44.3963101,21.6001586 42.7041515,21.6001586 M47.2326978,8.05131278 L47.2326978,8.05131278 C46.4265833,8.05131278 45.7731912,8.70470485 45.7731912,9.51081938 L45.7731912,13.392 C44.8750943,12.8535859 43.825385,12.5432247 42.7041515,12.5432247 C39.4023013,12.5432247 36.7160987,15.2292687 36.7160987,18.5311189 C36.7160987,21.8328106 39.4023013,24.5190132 42.7041515,24.5190132 C43.8640811,24.5190132 44.9474115,24.1864493 45.8656493,23.6129868 C46.0718167,24.1686872 46.6053145,24.5653216 47.2326978,24.5653216 C48.0386537,24.5653216 48.6920458,23.9119295 48.6920458,23.1059736 L48.6920458,9.51081938 C48.6920458,8.70470485 48.0386537,8.05131278 47.2326978,8.05131278" id="Fill-10" fill="#FFFFFF"></path>
    </g>
</svg>