<?xml version="1.0" encoding="UTF-8"?>
<svg width="60px" height="60px" viewBox="0 0 60 60" version="1.1" xmlns="http://www.w3.org/2000/svg" xmlns:xlink="http://www.w3.org/1999/xlink">
    <title>icon_publish</title>
    <defs>
        <linearGradient x1="-13.5628119%" y1="176.459033%" x2="102.58097%" y2="-30.9174079%" id="linearGradient-1">
            <stop stop-color="#FF7100" offset="0%"></stop>
            <stop stop-color="#F6DA35" offset="100%"></stop>
        </linearGradient>
        <linearGradient x1="-14.1973314%" y1="176.459033%" x2="103.105862%" y2="-30.9174079%" id="linearGradient-2">
            <stop stop-color="#FF7100" offset="0%"></stop>
            <stop stop-color="#F6DA35" offset="100%"></stop>
        </linearGradient>
        <linearGradient x1="45.0581102%" y1="176.459033%" x2="54.0880721%" y2="-30.9174079%" id="linearGradient-3">
            <stop stop-color="#FF7100" offset="0%"></stop>
            <stop stop-color="#F6DA35" offset="100%"></stop>
        </linearGradient>
    </defs>
    <g id="icon_publish" stroke="none" stroke-width="1" fill="none" fill-rule="evenodd">
        <path d="M33.120884,53.8811348 C33.1567167,54.0546088 33.2816596,54.1961757 33.449336,54.2532883 C33.5899478,54.3011823 33.7167336,54.3533224 33.8653041,54.4232513 L34.2425902,54.6105193 C34.6639661,54.8218747 34.9525809,54.9334963 35.3507851,55.0112527 C35.5097965,55.0423024 35.6739961,54.9943814 35.7913452,54.8826769 C39.2549319,51.5856927 42.6238967,50.4917354 45.9481862,51.5386301 C46.2804018,51.6432523 46.6151258,51.3846485 46.5977537,51.0367818 L46.1789272,42.9220585 L45.9958782,39.6241963 C45.9816195,39.3762134 45.7874773,39.1762967 45.5400186,39.154778 C42.6902791,38.9069677 39.3680535,40.7164774 36.8524015,43.431899 L36.4901636,43.8356111 L36.1403321,44.2514551 C33.8514564,47.062407 32.4490624,50.6286991 33.120884,53.8811348 Z" id="Path" fill="#363636" fill-rule="nonzero" transform="translate(39.775328, 47.076330) scale(-1, 1) rotate(-24.000000) translate(-39.775328, -47.076330) "></path>
        <path d="M44.8928434,40.1491787 L45.0695921,40.1463416 L45.3607666,45.5059326 L45.6105921,50.4123416 L45.417181,50.3680576 C42.0970592,49.6593006 38.7599616,50.8514116 35.4416642,53.8998554 L35.3495921,53.9853416 L35.3157656,53.9771909 C35.1844193,53.9366358 35.0553107,53.8842794 34.901301,53.8116489 L34.3306731,53.5301829 L34.1587267,53.4526998 L34.0975921,53.4273416 L34.0658921,53.2175913 C33.2636999,47.3083616 39.8311695,40.291432 44.8928434,40.1491787 Z" id="Path" fill="#E08300" fill-rule="nonzero" transform="translate(39.804744, 47.065842) scale(-1, 1) rotate(-24.000000) translate(-39.804744, -47.065842) "></path>
        <path d="M36.0436855,55.0091327 C34.6132907,50.8144333 36.2606384,46.5716101 38.8853751,43.6534876 L39.2184058,43.2957211 C41.357916,41.0748211 44.0551425,39.7200088 46.2679611,39.9124331 L46.3579716,41.5602061 L46.4746949,43.9561627 L46.5597693,45.9023247 L46.6699113,48.6961333 L46.7235721,50.1782915 C43.1891484,49.9858183 39.6291862,51.5960986 36.0436855,55.0091327 Z" id="Path" fill="#363636" fill-rule="nonzero" transform="translate(41.119284, 47.451725) scale(-1, 1) rotate(-24.000000) translate(-41.119284, -47.451725) "></path>
        <path d="M45.5720152,40.9909359 L45.4691336,41.0004948 C41.0065042,41.4671894 36.2022639,47.5599899 36.8642176,53.1038571 L36.8800152,53.2249359 L36.9774135,53.1434365 C39.8414533,50.7677164 42.7296325,49.4663281 45.6333537,49.2702292 L45.9360152,49.2539359 L45.8664772,47.3925778 L45.8110476,46.0267672 L45.7261588,44.0847163 L45.6391795,42.2706885 L45.5720152,40.9909359 Z" id="Path" fill="url(#linearGradient-1)" transform="translate(41.369378, 47.107936) scale(-1, 1) rotate(-24.000000) translate(-41.369378, -47.107936) "></path>
        <path d="M40.6217047,2.26681548 L42.6715943,3.29433847 L44.0394998,8.18598272 C45.4834798,13.3496699 46.0542713,18.718386 45.7282846,24.0702526 L44.5609535,43.2348428 C44.3555781,46.6065824 41.5156299,49.1913143 38.1659618,49.1081771 L37.8431,49.091938 L31.1586922,48.5839403 C27.9795214,48.3423316 25.4907705,45.748289 25.3810276,42.5618398 L24.7853244,25.2652427 C24.5687433,18.9766825 26.560022,12.8106536 30.4137946,7.83658743 L33.4696781,3.8923571 C35.1592782,1.71158947 38.155479,1.03060079 40.6217047,2.26681548 Z" id="Path" fill="#363636" fill-rule="nonzero" transform="translate(35.293325, 25.382164) rotate(36.000000) translate(-35.293325, -25.382164) "></path>
        <path d="M40.1735802,3.16078879 C38.2024352,2.17273714 35.8218241,2.66594337 34.403412,4.32864986 L34.2601683,4.50481302 L31.2042848,8.44904335 C27.5966243,13.1054524 25.684082,18.8467068 25.7722556,24.7265179 L25.7847201,25.2308189 L26.3804234,42.527416 C26.4699883,45.127986 28.4456689,47.2588865 31.0069751,47.5646077 L31.2344594,47.586812 L37.9975969,48.1001988 C40.8222763,48.2722523 43.261492,46.179935 43.5452458,43.3900008 L43.5627918,43.1740409 L44.7301229,24.0094508 C45.0341343,19.0183614 44.5416457,14.0123066 43.2726112,9.1789702 L43.0764345,8.45528858 L41.8272409,3.98993363 L40.1735802,3.16078879 Z" id="Path" fill="#DADADA" fill-rule="nonzero" transform="translate(35.293314, 25.382180) rotate(36.000000) translate(-35.293314, -25.382180) "></path>
        <path d="M41.5972917,4.45178419 C42.2015232,4.81584101 42.7076739,5.32199169 43.0717307,5.92622327 L45.0042201,9.1336102 C48.679513,15.2335592 50.4255847,22.3018092 50.0134659,29.4114726 L49.0670791,45.7380547 C48.875293,49.0466492 46.1363119,51.6314603 42.8221635,51.6314603 L35.9025113,51.6314603 C32.5883629,51.6314603 29.8493818,49.0466492 29.6575957,45.7380547 L28.7112089,29.4114726 C28.2990901,22.3018092 30.0451618,15.2335592 33.7204547,9.1336102 L35.652944,5.92622327 C36.8872752,3.87758189 39.5486503,3.21745303 41.5972917,4.45178419 Z" id="Path" fill="#363636" fill-rule="nonzero" transform="translate(39.362337, 27.730665) rotate(36.000000) translate(-39.362337, -27.730665) "></path>
        <path d="M41.0811708,5.30831211 C39.5618555,4.39290633 37.6043533,4.83229415 36.6152823,6.27757725 L36.5094423,6.44228602 L34.576953,9.64967294 C31.107722,15.4076173 29.4075168,22.0534585 29.6802952,28.7615578 L29.7094892,29.3535894 L30.655876,45.6801716 C30.812648,48.3847214 32.9953033,50.5136181 35.6778015,50.6267181 L35.9024674,50.631446 L42.8221196,50.631446 C45.5312094,50.631446 47.7828463,48.5756452 48.0509898,45.9041873 L48.068711,45.6801716 L49.0150978,29.3535894 C49.4041104,22.6425422 47.8141407,15.9694694 44.4491465,10.1600101 L44.147634,9.64967294 L42.2151447,6.44228602 C41.9751516,6.04396533 41.6548693,5.70106472 41.2756141,5.43490071 L41.0811708,5.30831211 Z" id="Path" fill="#FFFFFF" fill-rule="nonzero" transform="translate(39.362293, 27.730726) rotate(36.000000) translate(-39.362293, -27.730726) "></path>
        <path d="M43.3418727,16.9640611 C46.5240948,16.9640611 49.1037954,19.5439846 49.1037954,22.7264815 C49.1037954,25.9089783 46.5240948,28.4889018 43.3418727,28.4889018 C40.1596506,28.4889018 37.57995,25.9089783 37.57995,22.7264815 C37.57995,19.5439846 40.1596506,16.9640611 43.3418727,16.9640611 Z" id="Path" fill="#363636" fill-rule="nonzero" transform="translate(43.341873, 22.726481) rotate(36.000000) translate(-43.341873, -22.726481) "></path>
        <path d="M43.3418727,17.9640611 C40.7119547,17.9640611 38.57995,20.09625 38.57995,22.7264815 C38.57995,25.3567129 40.7119547,27.4889018 43.3418727,27.4889018 C45.9717907,27.4889018 48.1037954,25.3567129 48.1037954,22.7264815 C48.1037954,20.09625 45.9717907,17.9640611 43.3418727,17.9640611 Z" id="Path" fill="#EEEEEE" fill-rule="nonzero" transform="translate(43.341873, 22.726481) rotate(36.000000) translate(-43.341873, -22.726481) "></path>
        <path d="M8.88092177,37.8118071 C8.98145074,38.106613 9.32414272,38.2387471 9.59656572,38.0877428 C9.98992462,37.8697036 10.3595238,37.6415619 10.7585728,37.3732866 L11.3906236,36.9339452 L11.9710376,36.5148433 C12.0610034,36.4495608 12.1266505,36.3561607 12.1576055,36.2494018 L12.2155349,36.0588047 C12.6086096,34.8269087 13.1499982,34.3569175 14.4838831,33.8610542 L15.5031271,33.4991348 C15.7242702,33.4180288 15.9260613,33.339367 16.1201782,33.2574809 L16.4070574,33.1315251 C17.2305912,32.7552179 18.6439962,32.4486071 20.6288917,32.2248328 C20.8745599,32.1971365 21.0631057,31.9940555 21.072515,31.74701 C21.2034399,28.3094975 21.1875832,25.1747214 21.0247222,22.3422867 C21.0104635,22.0943037 20.8163213,21.8943871 20.5688627,21.8728684 C14.242199,21.3227085 6.4003504,30.537416 8.88092177,37.8118071 Z" id="Path" fill="#363636" fill-rule="nonzero" transform="translate(14.785459, 30.000000) rotate(36.000000) translate(-14.785459, -30.000000) "></path>
        <path d="M14.2075165,32.9491948 C12.6819841,33.5188363 11.9143801,34.148091 11.411979,35.5586497 L11.322175,35.8282819 L10.5677236,36.3675783 L10.277947,36.5659565 C10.089176,36.6929049 9.90815142,36.8098642 9.72717498,36.9212819 L9.70185724,36.8191558 C8.22235073,30.5925066 14.6336431,22.9930388 19.9624398,22.8747301 L20.124175,22.8732819 L20.1382381,23.1301108 C20.2521787,25.50484 20.2652453,28.0908302 20.1773092,30.8878527 L20.162175,31.3062819 L19.8381102,31.3477651 C18.264372,31.5571222 17.0713712,31.8278047 16.2492489,32.1668606 L16.0661075,32.2463212 C15.8724147,32.3348276 15.674863,32.4170664 15.4577165,32.5005074 L14.2075165,32.9491948 Z" id="Path" fill="#E08300" fill-rule="nonzero" transform="translate(14.860244, 29.897282) rotate(36.000000) translate(-14.860244, -29.897282) "></path>
        <path d="M20.9708624,22.974563 C21.2647103,22.9664646 21.5155639,23.1717452 21.5733547,23.4507553 L21.5852619,23.5462978 L21.9865353,32.5972967 L21.9862693,32.6197229 C21.9761563,32.9501021 21.7001328,33.2097292 21.3697531,33.1996315 C18.2388473,33.1037938 15.3967548,34.2440015 12.8434755,36.6202546 L12.3576418,37.0822717 L12.1013365,37.3162332 C12.0410128,37.3705334 11.9684061,37.4093739 11.8897566,37.4294167 C11.6512903,37.4901869 11.4091681,37.3688935 11.3102913,37.1527713 L11.280214,37.0674508 L11.2098285,36.7727182 C9.74381445,30.1947868 15.3355371,23.9387636 20.0313256,23.0577513 C20.2699686,23.0129777 20.5831475,22.9852482 20.9708624,22.974563 Z" id="Path" fill="#363636" fill-rule="nonzero" transform="translate(16.479089, 30.209697) rotate(36.000000) translate(-16.479089, -30.209697) "></path>
        <path d="M21.1027697,32.2361837 L20.7387697,24.0341837 L20.5125277,24.0571451 L20.3509792,24.0818441 C15.8017975,24.9353504 11.5419586,30.5740905 12.1815571,35.7899974 L12.2117697,36.0101837 L12.2906744,35.9357954 C14.8369432,33.5637837 17.6887805,32.3215089 20.8104078,32.2396237 L21.1027697,32.2361837 Z" id="Path" fill="url(#linearGradient-2)" transform="translate(16.610180, 30.022184) rotate(36.000000) translate(-16.610180, -30.022184) "></path>
        <path d="M29.7212157,31.812538 C29.9762486,31.7354519 30.2439061,31.8551129 30.3611445,32.0841634 L30.3977396,32.1750143 L31.2832139,35.1045325 C31.9940094,37.4561405 32.1908194,39.931119 31.8626786,42.3619489 L31.7900478,42.8474767 L30.5562816,50.3588325 C30.5163791,50.6017653 30.3473859,50.8037096 30.1152909,50.8858097 C29.7957756,50.9988335 29.4479631,50.8569316 29.293957,50.566135 L29.2537915,50.4745352 L26.8452491,43.6656484 L26.7407136,37.2937489 C26.7163584,35.8091911 27.2486897,34.372892 28.2269337,33.2648079 L28.415553,33.0609567 L29.4886056,31.954252 C29.5528349,31.8880085 29.6328929,31.8392344 29.7212157,31.812538 Z" id="Path" fill="#363636" fill-rule="nonzero" transform="translate(29.378383, 41.356909) rotate(34.000000) translate(-29.378383, -41.356909) "></path>
        <path d="M29.8208514,33.2562369 L29.289487,33.8049603 C28.4370784,34.6841013 27.943704,35.8459885 27.899207,37.0635632 L27.8965752,37.3252417 L27.9978514,43.5332369 L29.9298514,48.9952369 L30.9592666,42.7332914 C31.3342356,40.450423 31.2141699,38.1154632 30.6093956,35.8861644 L30.4819811,35.4417602 L29.8208514,33.2562369 Z" id="Path" fill="url(#linearGradient-3)" transform="translate(29.534712, 41.125737) rotate(34.000000) translate(-29.534712, -41.125737) "></path>
    </g>
</svg>