<?xml version="1.0" encoding="UTF-8"?>
<svg width="99px" height="87px" viewBox="0 0 99 87" version="1.1" xmlns="http://www.w3.org/2000/svg" xmlns:xlink="http://www.w3.org/1999/xlink">
    <title>icon_signup</title>
    <defs>
        <linearGradient x1="-64.0478164%" y1="176.459033%" x2="144.343604%" y2="-30.9174079%" id="linearGradient-1">
            <stop stop-color="#FF7100" offset="0%"></stop>
            <stop stop-color="#F6DA35" offset="100%"></stop>
        </linearGradient>
    </defs>
    <g id="icon_signup" stroke="none" stroke-width="1" fill="none" fill-rule="evenodd">
        <path d="M41.5172414,0 C64.4462428,0 83.0344828,17.9083252 83.0344828,40 C83.0344828,62.0916748 64.4462428,80 41.5172414,80 C18.5876066,80 0,62.0916748 0,40 C0,17.9083252 18.5876066,0 41.5172414,0 Z" id="Path" fill="#363636" fill-rule="nonzero"></path>
        <path d="M41.5172414,1 C19.1317329,1 1,18.4691114 1,40 C1,61.5308886 19.1317329,79 41.5172414,79 C63.9023375,79 82.0344828,61.5306754 82.0344828,40 C82.0344828,18.4693246 63.9023375,1 41.5172414,1 Z" id="Path" fill="#DADADA" fill-rule="nonzero"></path>
        <path d="M46.1272727,0 C68.1480475,0 86,17.9083252 86,40 C86,62.0916748 68.1480475,80 46.1272727,80 C24.1058897,80 6.25454545,62.0916748 6.25454545,40 C6.25454545,17.9083252 24.1058897,0 46.1272727,0 Z" id="Path" fill="#363636" fill-rule="nonzero"></path>
        <path d="M46.1272727,1 C24.6588891,1 7.25454545,18.4598978 7.25454545,40 C7.25454545,61.5401022 24.6588891,79 46.1272727,79 C67.5952606,79 85,61.5398891 85,40 C85,18.4601109 67.5952606,1 46.1272727,1 Z" id="Path" fill="#EEEEEE" fill-rule="nonzero"></path>
        <path d="M54.0937872,49.9328613 L54.1400264,55.1708984 C54.1510082,56.394928 54.8994173,57.4823487 56.0201091,57.9328854 L56.200101,57.9986572 L69.1300204,62.2607422 C71.8137149,63.1457519 73.8914335,65.1611328 74.9141699,67.6751709 C67.6564526,75.2703858 57.4424733,80 46.1272727,80 C34.8017292,80 24.5798406,75.2624513 17.3215149,67.65625 C18.3104734,65.2435529 20.2720725,63.2938254 22.8070006,62.3657085 L23.1020139,62.2631836 L36.0270661,58.0108642 C37.2073805,57.6219831 38.0196142,56.5466295 38.0843075,55.3152114 L38.0883576,55.1293945 L38.0439437,50.0750733 C40.2396937,51.987915 42.9507666,53.1500244 46.0962439,53.1225586 C49.1164861,53.0956055 51.7167565,51.9796523 53.8319228,50.1634991 L54.0937872,49.9328613 Z" id="Path" fill="#363636" fill-rule="nonzero"></path>
        <path d="M53.111,51.962 L52.9212064,52.0887909 C50.8892085,53.3945057 48.5908002,54.1003367 46.1049754,54.1225205 C43.6200235,54.1442187 41.3099574,53.4792006 39.2550162,52.2098413 L39.061,52.086 L39.0883185,55.120557 C39.1031032,56.7934282 38.0798606,58.2915508 36.5353293,58.8906262 L36.3395852,58.9607757 L23.4146671,63.2130509 C21.3412872,63.8955134 19.6382588,65.3470221 18.6229735,67.2381772 L18.514,67.448 L18.8086285,67.7443079 C25.8974816,74.7730804 35.403485,78.8526278 45.571981,78.9960846 L46.1272727,79 C56.4951282,79 66.2109605,74.9077602 73.4276166,67.7616076 L73.721,67.465 L73.6128163,67.251749 C72.64571,65.4398492 71.0481927,64.0290803 69.0979376,63.3086645 L68.8169602,63.2104755 L55.886957,58.9483629 C54.3248997,58.4333099 53.2446489,57.0157978 53.1471039,55.3846783 L53.1400653,55.1797257 L53.111,51.962 Z" id="Path" fill="#FFECC9" fill-rule="nonzero"></path>
        <path d="M81,53 C71.6111593,53 64,60.6111593 64,70 C64,79.3888407 71.6111593,87 81,87 C90.3888407,87 98,79.3888407 98,70 C98,60.6111593 90.3888407,53 81,53 Z" id="Path" fill="#FFFFFF" fill-rule="nonzero"></path>
        <path d="M81,55 C89.2842712,55 96,61.7157288 96,70 C96,78.2842712 89.2842712,85 81,85 C72.7157288,85 66,78.2842712 66,70 C66,61.7157288 72.7157288,55 81,55 Z" id="Path" fill="#363636" fill-rule="nonzero"></path>
        <path d="M81,56 C73.2680135,56 67,62.2680135 67,70 C67,77.7319865 73.2680135,84 81,84 C88.7319865,84 95,77.7319865 95,70 C95,62.2680135 88.7319865,56 81,56 Z" id="Path" fill="url(#linearGradient-1)"></path>
        <rect id="Rectangle" fill="#FFFFFF" x="79.125" y="62.5" width="3.75" height="15" rx="1.875"></rect>
        <rect id="Rectangle-Copy" fill="#FFFFFF" transform="translate(81.000000, 70.000000) rotate(-90.000000) translate(-81.000000, -70.000000) " x="79.125" y="62.5" width="3.75" height="15" rx="1.875"></rect>
        <path d="M46.1436144,19 C55.539459,19 59.9373665,25.9031207 60.4120922,33.5442631 C61.0604942,33.0830128 61.9147521,32.7084961 62.9728307,32.7084961 C63.7121018,32.7084961 64.3932949,33.5858059 64.8223741,34.8288634 L64.9204132,35.1339577 L65.008175,35.4515251 C65.8736322,38.8459669 64.9409119,44.0432727 59.1048542,42.8569082 C58.0575144,45.8181705 56.4231892,48.4799711 54.276135,50.4155762 L54.3218555,55.5795898 C54.3320767,56.7815756 55.0337326,57.6247675 56.1218169,58.0892718 L60.4120922,59.4536446 C58.1932226,65.3246163 52.4637727,69.7574462 45.833934,69.7574462 C39.4641035,69.7574462 32.6661092,65.481 31.0149174,59.7116698 L32.2875264,59.2681065 L33.6276518,58.80856 L35.7644331,58.0892718 C36.9263051,57.706467 37.9142748,56.7868387 38.0008617,55.5795898 L38.0008617,50.4155762 C35.74711,48.4657461 34.2647241,45.9159218 33.1829063,42.8550499 C27.346076,44.0426869 26.4133891,38.8457823 27.2787508,35.4514669 L27.3665031,35.1339107 L27.4645317,34.8288261 C27.5160157,34.6796637 27.5711297,34.5357675 27.6295383,34.3980216 L27.750649,34.1309921 L27.8799491,33.8819349 C28.2795372,33.1632935 28.7816326,32.7084961 29.3137899,32.7084961 C30.3719828,32.7084961 31.226311,33.0830938 31.8767744,33.5436187 C32.349741,25.9031207 36.7477698,19 46.1436144,19 Z" id="Path" fill="#363636" fill-rule="nonzero"></path>
        <path d="M46.1436144,20 C38.2473796,20 33.5196096,25.2989835 32.8998652,33.2477271 L32.874864,33.6054031 L32.7639595,35.3969994 L31.2989409,34.3597734 C30.7073383,33.9409216 30.0507645,33.7084961 29.3137899,33.7084961 C28.7721893,33.7084961 27.8298516,36.0863242 28.0281861,38.344659 C28.2654098,41.0458055 29.7552687,42.4409585 32.7383689,41.9214585 L32.9835189,41.8751291 L33.8358912,41.7016944 L34.1257505,42.5218161 C35.1711418,45.4796235 36.5244143,47.712225 38.3739591,49.4088255 L38.6551364,49.6593192 L39.0008617,49.958423 L38.9982995,55.6511286 C38.8848445,57.2329893 37.6846029,58.5095068 36.0805413,59.037995 L33.9502906,59.7550823 L32.283,60.328 L32.3569626,60.509542 C34.2975865,65.0842165 39.9275433,68.62177 45.5118402,68.7536341 L45.833934,68.7574462 C51.4113742,68.7574462 56.5299739,65.3373847 58.9564847,60.3114461 L59.068,60.074 L55.7291958,59.0089722 C54.3074962,58.402047 53.4187039,57.2698395 53.3292129,55.800606 L53.3218946,55.5884432 L53.2721887,49.9742731 L53.6065482,49.6728425 C55.4630053,47.9992154 56.9703349,45.681996 57.9956778,42.977721 L58.1620827,42.5234687 L58.4520034,41.703743 L59.3040617,41.8769509 C62.4503775,42.5165397 64.0152315,41.1193869 64.2588044,38.3449233 C64.4570956,36.0862502 63.5147096,33.7084961 62.9728307,33.7084961 C62.317639,33.7084961 61.7262169,33.8922974 61.190185,34.2267178 L60.9917531,34.3591208 L59.525587,35.4020995 L59.4140165,33.6062711 C58.9077818,25.4579618 54.1575326,20 46.1436144,20 Z" id="Path" fill="#FFFFFF" fill-rule="nonzero"></path>
        <path d="M30.966924,10.5566406 C31.0745256,10.6603786 31.1803407,10.7582661 31.2848755,10.8505886 L31.595145,11.111147 L31.9007689,11.3400293 C32.5601144,11.8028627 33.2081295,12.054709 33.9837975,12.1739939 L34.3513684,12.2199214 L34.7401039,12.248737 L35.1530408,12.2621543 L35.3695336,12.263624 L36.0636642,12.2496475 L36.8327439,12.2125903 L40.0692249,11.9966221 L41.713898,11.904396 L43.1012671,11.8457807 L44.105142,11.8149422 L45.1757291,11.7926936 L46.3160651,11.7807483 L46.9133378,11.7791748 C52.2085755,11.7791748 54.6872976,13.080533 55.8259946,14.4657652 L55.9832387,14.6689395 C56.1312596,14.8724299 56.2521252,15.0764447 56.3504629,15.2771682 L56.4651481,15.5338688 L56.557066,15.785103 L56.6284213,16.0290528 C59.923689,18.4482422 61.4261657,21.9205775 62.0567107,25.1537199 L62.1828532,25.8677334 L62.2358617,26.2208023 L62.3231566,26.9170946 L62.3580043,27.2595302 L62.4115041,27.9310103 L62.445281,28.5820095 C62.4535023,28.7952456 62.4588108,29.0045429 62.4615806,29.2093762 L62.4626485,29.8099589 L62.4507305,30.3806059 L62.4134171,31.1735532 L62.3595171,31.8814177 L62.2749486,32.6745021 L62.1740881,33.3881498 L62.1048152,33.780625 L62.1048152,33.9290496 C60.9857989,34.5163333 59.8935756,35.2378065 58.828145,36.0934692 L58.7571479,35.1636705 C58.7447854,35.0122985 58.7321581,34.8627236 58.719266,34.714946 L58.6387353,33.8498465 C58.6247838,33.7092577 58.6105676,33.5704661 58.5960865,33.4334716 L58.5060221,32.6330715 L58.409602,31.8758041 C58.3930023,31.7531873 58.3761378,31.6323677 58.3590085,31.5133453 L58.2530548,30.8207772 C58.2348661,30.7089436 58.2164127,30.5989072 58.1976945,30.490668 L58.082207,29.8627992 C57.8844316,28.8522952 57.6601737,28.0215114 57.4094336,27.3704477 L57.2588259,27.0997474 L56.6877193,26.0451968 C56.0778543,24.9377738 55.4490833,23.9714832 54.3371511,23.4130859 C53.7321486,23.1090437 53.2475785,23.142613 52.6891659,23.3316129 L52.3760862,23.4490233 L51.2789072,23.9205297 L50.8371803,24.0955567 C49.751252,24.5041505 48.2596265,24.8962403 45.9617853,24.8962403 C43.6637009,24.8962403 42.1720267,24.5041505 41.0860887,24.0955567 L40.6443596,23.9205297 L39.5471751,23.4490233 L39.2340851,23.3316129 C38.6756461,23.142613 38.1622373,23.0784346 37.5858112,23.4130859 C36.1387904,24.2531719 35.3354,25.7793171 34.6709782,27.2811943 L34.1079482,28.5820095 C33.3643003,31.463163 33.0083777,33.931247 33.0401803,35.9862616 L32.5356843,35.582522 C31.3142732,34.627078 30.3915787,34.0759205 29.7676008,33.9290496 L29.6241196,33.1473389 L29.5544995,32.4052341 L29.5228916,31.9422546 L29.4972893,31.4234907 L29.480596,30.8530676 L29.4757149,30.2351106 L29.4786111,29.9095959 L29.4968917,29.2280728 L29.5130019,28.8730956 L29.5609765,28.1372881 L29.6323761,27.3704477 C29.7584959,26.1989749 29.9734735,24.9366884 30.3214015,23.6462403 C28.9878476,22.1725114 28.4100884,19.4528662 28.3546439,16.8450752 L28.3515293,16.1962435 L28.3578798,15.8750486 L28.3858897,15.2420475 C28.3985608,15.0335263 28.4145213,14.8277463 28.433636,14.6254931 L28.500308,14.0301001 L28.5404878,13.7418123 L28.6340283,13.1870008 L28.673917,12.9851937 L28.7607922,12.5967863 C28.7912986,12.4708673 28.8233332,12.3486123 28.8568374,12.2303629 L28.9617,11.8879733 C29.4347,10.4593189 30.1461302,9.7653515 30.966924,10.5566406 Z" id="Path" fill="#363636" fill-rule="nonzero"></path>
        <path d="M57.6403837,25.7029177 L58.2071123,26.748282 L58.2803113,26.8789479 L58.3426201,27.0110553 C58.7074701,27.9584127 59.0145672,29.2295004 59.2674846,30.8309159 L59.3803816,31.59351 L59.4856625,32.4031586 C59.536412,32.8197706 59.5843347,33.2540821 59.6294745,33.7061742 L59.678,34.221 L60.1436536,33.9146038 C60.4723733,33.7040347 60.8036443,33.5047944 61.1374641,33.316905 L61.175,33.296 L61.2805858,32.5684708 L61.3624035,31.8054929 L61.4145224,31.1265486 L61.4509485,30.3597254 L61.4626501,29.8117371 L61.461672,29.2228973 L61.4558125,28.9235729 L61.4466243,28.6338245 L61.4146631,28.0104331 L61.3624106,27.3533015 L61.330924,27.0414918 L61.2457441,26.3610417 L61.1981028,26.0417063 L61.0752023,25.345139 C60.4031407,21.8991185 58.8848785,19.0572141 56.335393,17.0616367 L56.0366346,16.8351474 L55.7636932,16.6347701 L55.6179467,16.1286942 L55.5521252,15.941777 L55.4524428,15.7171227 C54.6110112,13.9996211 52.1435569,12.8398302 47.3006235,12.781483 L46.3265398,12.7806935 L45.1965063,12.7924778 L44.1358469,12.8144707 L43.1434787,12.8448893 L41.7698857,12.9028275 L40.1358061,12.9944031 L36.8808719,13.2114315 L36.0837954,13.2494448 L35.3703041,13.2636237 L35.1205656,13.2616269 L34.6661801,13.2460009 L34.2273837,13.2122055 L33.8318009,13.1623749 C32.9977632,13.0341137 32.2805522,12.7715573 31.5683788,12.319123 L31.3013316,12.1404511 L30.9520512,11.8769345 L30.6229074,11.6001206 L30.4491137,11.4430175 L30.319,11.32 L30.2844841,11.3686217 C30.0599354,11.7071232 29.8359809,12.3247718 29.6685794,13.1120802 L29.6201116,13.3532531 L29.5295856,13.8890723 L29.4940967,14.1413843 L29.4291997,14.7195829 L29.4044267,15.0071235 L29.3849121,15.2862537 L29.3574897,15.9029772 L29.3515177,16.1914431 L29.354418,16.8238189 C29.4091808,19.3995471 29.9785367,21.6329837 30.9306924,22.819968 L31.0628922,22.9752772 L31.4289458,23.3798081 L31.2869234,23.9065624 C31.0263719,24.8729351 30.8324233,25.8642862 30.7001047,26.8631069 L30.6280694,27.4631555 L30.5588577,28.2023499 L30.5116637,28.9248124 L30.4965322,29.2548863 L30.4785033,29.9242772 L30.4756837,30.2272119 L30.4801681,30.8238153 L30.4960737,31.3741983 L30.5205692,31.8741425 L30.5501278,32.3118299 L30.6076887,32.9668069 L30.646,33.179 L30.6815292,33.194355 C31.0493554,33.35837 31.4563741,33.5895128 31.9073644,33.8883833 L32.113,34.027 L32.1265487,33.8648926 C32.2622687,32.3619088 32.5542042,30.7017702 33.0009983,28.8826122 L33.139681,28.3320923 L33.1923549,28.1799039 L33.8272741,26.7177041 C34.7556229,24.6494726 35.6509836,23.3800642 37.0837292,22.5482659 C37.8224121,22.1194144 38.5303096,22.0812169 39.3719274,22.3277748 L39.5852129,22.3952854 L39.9420029,22.5302682 L41.0127281,22.9908498 L41.4382449,23.1596154 C42.7113682,23.6386393 44.086517,23.8962403 45.9617853,23.8962403 C47.7029071,23.8962403 49.0129219,23.6741254 50.1975268,23.2638749 L50.4688101,23.1658775 L50.8840778,23.0017752 L52.0249482,22.5126996 L52.3685717,22.3843963 C53.2279141,22.0935439 53.9716948,22.1102515 54.7859271,22.5194417 C56.0137577,23.1360416 56.7174644,24.00817 57.6403837,25.7029177 Z" id="Path" fill="#DADADA" fill-rule="nonzero"></path>
    </g>
</svg>